<?xml version="1.0" encoding="utf-8"?>
<!-- Generator: Adobe Illustrator 21.0.2, SVG Export Plug-In . SVG Version: 6.00 Build 0)  -->
<svg version="1.1" id="Layer_1" xmlns="http://www.w3.org/2000/svg" xmlns:xlink="http://www.w3.org/1999/xlink" x="0px" y="0px"
	 viewBox="0 0 71.8 57.3" style="enable-background:new 0 0 71.8 57.3;" xml:space="preserve">
<style type="text/css">
	.st0{fill:none;stroke:#C1C1C1;stroke-width:2;stroke-linecap:square;stroke-miterlimit:10;}
	.st1{fill:none;stroke:#C1C1C1;stroke-width:3;stroke-linecap:square;stroke-miterlimit:10;}
	.st2{fill:none;stroke:#C1C1C1;stroke-width:4;stroke-linecap:square;stroke-miterlimit:10;}
	.st3{fill:#FFFFFF;stroke:#C1C1C1;stroke-miterlimit:10;}
</style>
<g>
	<g>
		<line class="st0" x1="42.7" y1="17.1" x2="42.7" y2="50.7"/>
	</g>
	<g>
		<line class="st0" x1="5.2" y1="16.9" x2="68.2" y2="16.9"/>
	</g>
	<g>
		<line class="st0" x1="21.7" y1="3.6" x2="8.8" y2="3.6"/>
	</g>
	<g>
		<line class="st0" x1="42.7" y1="3.6" x2="29.8" y2="3.6"/>
	</g>
	<g>
		<line class="st0" x1="63.7" y1="3.6" x2="50.8" y2="3.6"/>
	</g>
	<g>
		<line class="st1" x1="13" y1="54.6" x2="6.8" y2="54.6"/>
	</g>
	<g>
		<line class="st1" x1="66" y1="54.6" x2="59.8" y2="54.6"/>
	</g>
	<g>
		<path class="st2" d="M68.7,49.6c0,1.1-0.9,2-2,2h-61c-1.1,0-2-0.9-2-2v-41c0-1.1,0.9-2,2-2h61c1.1,0,2,0.9,2,2V49.6z"/>
	</g>
	<g>
		<path class="st0" d="M35.7,39.1c0,1.1-0.9,2-2,2h-19c-1.1,0-2-0.9-2-2V27.1c0-1.1,0.9-2,2-2h19c1.1,0,2,0.9,2,2V39.1z"/>
	</g>
	<line class="st0" x1="26.2" y1="29.8" x2="18.7" y2="37.4"/>
	<line class="st0" x1="31.7" y1="29.8" x2="24.1" y2="37.4"/>
	<circle class="st3" cx="16.1" cy="12.2" r="1.6"/>
	<circle class="st3" cx="26.1" cy="12.2" r="1.6"/>
	<circle class="st3" cx="36.1" cy="12.2" r="1.6"/>
	<circle class="st3" cx="46.1" cy="12.2" r="1.6"/>
	<circle class="st3" cx="56.1" cy="12.2" r="1.6"/>
</g>
</svg>
