<!DOCTYPE svg PUBLIC "-//W3C//DTD SVG 20010904//EN" "http://www.w3.org/TR/2001/REC-SVG-20010904/DTD/svg10.dtd">
<svg version="1.0" xmlns="http://www.w3.org/2000/svg" width="32px" height="32px" viewBox="0 0 320 320" preserveAspectRatio="xMidYMid meet">
<g id="layer1" fill="#d8d8d8" stroke="none">
 <path d="M0 302 c0 -10 20 -37 44 -61 l44 -43 -6 -64 c-5 -62 -4 -64 31 -99 31 -31 41 -35 87 -35 46 0 56 4 86 34 30 30 34 40 34 86 0 46 -4 56 -35 87 -35 35 -37 36 -99 31 l-64 -6 -43 44 c-45 46 -79 57 -79 26z m257 -124 c51 -48 15 -138 -56 -138 -47 0 -81 32 -81 79 0 72 84 109 137 59z"/>
 </g>

</svg>