<svg xmlns="http://www.w3.org/2000/svg" width="24" height="32" viewBox="0 0 24 32">
  <metadata><?xpacket begin="﻿" id="W5M0MpCehiHzreSzNTczkc9d"?>
<x:xmpmeta xmlns:x="adobe:ns:meta/" x:xmptk="Adobe XMP Core 5.6-c138 79.159824, 2016/09/14-01:09:01        ">
   <rdf:RDF xmlns:rdf="http://www.w3.org/1999/02/22-rdf-syntax-ns#">
      <rdf:Description rdf:about=""/>
   </rdf:RDF>
</x:xmpmeta>
                                                                                                    
                                                                                                    
                                                                                                    
                                                                                                    
                                                                                                    
                                                                                                    
                                                                                                    
                                                                                                    
                                                                                                    
                                                                                                    
                                                                                                    
                                                                                                    
                                                                                                    
                                                                                                    
                                                                                                    
                                                                                                    
                                                                                                    
                                                                                                    
                                                                                                    
                                                                                                    
                           
<?xpacket end="w"?></metadata>
<defs>
    <style>
      .cls-1 {
        fill: #dbdbdb;
        fill-rule: evenodd;
      }
    </style>
  </defs>
  <path id="Pin" class="cls-1" d="M873.085,1324.51l-7.984,12.35a2.506,2.506,0,0,1-4.2,0l-7.984-12.35A12,12,0,1,1,873.085,1324.51ZM863,1309a9,9,0,0,0-7.565,13.88l7.565,11.7,7.565-11.7A9,9,0,0,0,863,1309Zm0,14a5,5,0,1,1,5-5A5,5,0,0,1,863,1323Zm0-7a2,2,0,1,0,2,2A2,2,0,0,0,863,1316Z" transform="translate(-851 -1306)"/>
</svg>
