<svg xmlns="http://www.w3.org/2000/svg" width="32" height="32" viewBox="0 0 32 32">
  <metadata><?xpacket begin="﻿" id="W5M0MpCehiHzreSzNTczkc9d"?>
<x:xmpmeta xmlns:x="adobe:ns:meta/" x:xmptk="Adobe XMP Core 5.6-c138 79.159824, 2016/09/14-01:09:01        ">
   <rdf:RDF xmlns:rdf="http://www.w3.org/1999/02/22-rdf-syntax-ns#">
      <rdf:Description rdf:about=""/>
   </rdf:RDF>
</x:xmpmeta>
                                                                                                    
                                                                                                    
                                                                                                    
                                                                                                    
                                                                                                    
                                                                                                    
                                                                                                    
                                                                                                    
                                                                                                    
                                                                                                    
                                                                                                    
                                                                                                    
                                                                                                    
                                                                                                    
                                                                                                    
                                                                                                    
                                                                                                    
                                                                                                    
                                                                                                    
                                                                                                    
                           
<?xpacket end="w"?></metadata>
<defs>
    <style>
      .cls-1 {
        fill: #0023ff;
        fill-rule: evenodd;
      }
    </style>
  </defs>
  <path id="Add" class="cls-1" d="M241,1338a16,16,0,1,1,16-16A16,16,0,0,1,241,1338Zm0-29a13,13,0,1,0,13,13A13.014,13.014,0,0,0,241,1309Zm5,15h-3v3a2,2,0,0,1-4,0v-3h-3a2,2,0,0,1,0-4h3v-3a2,2,0,0,1,4,0v3h3A2,2,0,0,1,246,1324Z" transform="translate(-225 -1306)"/>
</svg>
