<svg xmlns="http://www.w3.org/2000/svg" width="36" height="32" viewBox="0 0 36 32">
  <metadata><?xpacket begin="﻿" id="W5M0MpCehiHzreSzNTczkc9d"?>
<x:xmpmeta xmlns:x="adobe:ns:meta/" x:xmptk="Adobe XMP Core 5.6-c138 79.159824, 2016/09/14-01:09:01        ">
   <rdf:RDF xmlns:rdf="http://www.w3.org/1999/02/22-rdf-syntax-ns#">
      <rdf:Description rdf:about=""/>
   </rdf:RDF>
</x:xmpmeta>
                                                                                                    
                                                                                                    
                                                                                                    
                                                                                                    
                                                                                                    
                                                                                                    
                                                                                                    
                                                                                                    
                                                                                                    
                                                                                                    
                                                                                                    
                                                                                                    
                                                                                                    
                                                                                                    
                                                                                                    
                                                                                                    
                                                                                                    
                                                                                                    
                                                                                                    
                                                                                                    
                           
<?xpacket end="w"?></metadata>
<defs>
    <style>
      .cls-1 {
        fill: #d8d8d8;
        fill-rule: evenodd;
      }
    </style>
  </defs>
  <path id="Basket" class="cls-1" d="M87,350h-5.1a1.512,1.512,0,0,0-.132-0.294l-5-8a1.5,1.5,0,0,0-2.547,1.588L78.418,350H65.582l4.191-6.706a1.5,1.5,0,0,0-2.547-1.588l-5,8A1.511,1.511,0,0,0,62.1,350H57a3,3,0,0,0-3,3v2a3,3,0,0,0,2.317,2.915l3.8,12.933A3,3,0,0,0,63,373H81a3,3,0,0,0,2.879-2.152l3.8-12.933A3,3,0,0,0,90,355v-2A3,3,0,0,0,87,350Zm-30,3H87v2H57v-2Zm24,17-18,0L59.47,358H84.53Z" transform="translate(-54 -341)"/>
</svg>
