<svg xmlns="http://www.w3.org/2000/svg" width="27" height="32" viewBox="0 0 27 32">
  <metadata><?xpacket begin="﻿" id="W5M0MpCehiHzreSzNTczkc9d"?>
<x:xmpmeta xmlns:x="adobe:ns:meta/" x:xmptk="Adobe XMP Core 5.6-c138 79.159824, 2016/09/14-01:09:01        ">
   <rdf:RDF xmlns:rdf="http://www.w3.org/1999/02/22-rdf-syntax-ns#">
      <rdf:Description rdf:about=""/>
   </rdf:RDF>
</x:xmpmeta>
                                                                                                    
                                                                                                    
                                                                                                    
                                                                                                    
                                                                                                    
                                                                                                    
                                                                                                    
                                                                                                    
                                                                                                    
                                                                                                    
                                                                                                    
                                                                                                    
                                                                                                    
                                                                                                    
                                                                                                    
                                                                                                    
                                                                                                    
                                                                                                    
                                                                                                    
                                                                                                    
                           
<?xpacket end="w"?></metadata>
<defs>
    <style>
      .cls-1 {
        fill: #d8d8d8;
        fill-rule: evenodd;
      }
    </style>
  </defs>
  <path id="In" class="cls-1" d="M84,1338H61a2,2,0,0,1-2-2v-21a2,2,0,0,1,2-2h5.5a1.5,1.5,0,0,1,0,3H62v19H83v-19H78.5a1.5,1.5,0,1,1,0-3H84a2,2,0,0,1,2,2v21A2,2,0,0,1,84,1338Zm-5-15.5a1.5,1.5,0,0,1-.44,1.06l-5,5a1.5,1.5,0,0,1-2.121,0l-5-5a1.5,1.5,0,1,1,2.121-2.12l2.44,2.44V1307.5a1.5,1.5,0,0,1,3,0v16.38l2.439-2.44A1.5,1.5,0,0,1,79,1322.5Z" transform="translate(-59 -1306)"/>
</svg>
